{
  "accessors": [
    {
      "bufferView": 2,
      "componentType": 5126,
      "count": 27058,
      "max": [
        3.174633026123047,
        10.070417404174805,
        5.782341957092285
      ],
      "min": [
        -6.898664951324463,
        9.564668655395508,
        -2.2729039192199707
      ],
      "type": "VEC3"
    },
    {
      "bufferView": 2,
      "byteOffset": 324696,
      "componentType": 5126,
      "count": 27058,
      "max": [
        0.9999425411224365,
        0.9999244809150696,
        0.9996501207351685
      ],
      "min": [
        -0.9998451471328735,
        -0.9999998807907104,
        -0.9969772100448608
      ],
      "type": "VEC3"
    },
    {
      "bufferView": 3,
      "componentType": 5126,
      "count": 27058,
      "max": [
        1.0,
        0.9977688789367676,
        0.9999228715896606,
        1.0
      ],
      "min": [
        -0.9999666810035706,
        -0.9961868524551392,
        -0.9999943971633911,
        -1.0
      ],
      "type": "VEC4"
    },
    {
      "bufferView": 1,
      "componentType": 5126,
      "count": 27058,
      "max": [
        0.9622139930725098,
        0.9994909763336182
      ],
      "min": [
        4.5000000682193786e-05,
        0.00012099999730708078
      ],
      "type": "VEC2"
    },
    {
      "bufferView": 0,
      "componentType": 5125,
      "count": 150000,
      "type": "SCALAR"
    }
  ],
  "asset": {
    "extras": {
      "author": "Minneapolis Institute of Art (https://sketchfab.com/artsmia)",
      "license": "CC0-1.0 (http://creativecommons.org/publicdomain/zero/1.0/)",
      "source": "https://sketchfab.com/3d-models/vincent-van-goghs-olive-trees-0a4e3af44632467f901c23fd140fedc2",
      "title": "Vincent van Gogh's Olive Trees"
    },
    "generator": "Sketchfab-12.64.0",
    "version": "2.0"
  },
  "bufferViews": [
    {
      "buffer": 0,
      "byteLength": 600000,
      "name": "floatBufferViews",
      "target": 34963
    },
    {
      "buffer": 0,
      "byteLength": 216464,
      "byteOffset": 600000,
      "byteStride": 8,
      "name": "floatBufferViews",
      "target": 34962
    },
    {
      "buffer": 0,
      "byteLength": 649392,
      "byteOffset": 816464,
      "byteStride": 12,
      "name": "floatBufferViews",
      "target": 34962
    },
    {
      "buffer": 0,
      "byteLength": 432928,
      "byteOffset": 1465856,
      "byteStride": 16,
      "name": "floatBufferViews",
      "target": 34962
    }
  ],
  "buffers": [
    {
      "byteLength": 1898784,
      "uri": "scene.bin"
    }
  ],
  "images": [
    {
      "uri": "textures/material_0_baseColor.jpeg"
    },
    {
      "uri": "textures/material_0_normal.jpeg"
    }
  ],
  "materials": [
    {
      "name": "material_0",
      "normalTexture": {
        "index": 1
      },
      "pbrMetallicRoughness": {
        "baseColorTexture": {
          "index": 0
        },
        "metallicFactor": 0.0,
        "roughnessFactor": 0.39927540654721466
      }
    }
  ],
  "meshes": [
    {
      "name": "Object_0",
      "primitives": [
        {
          "attributes": {
            "NORMAL": 1,
            "POSITION": 0,
            "TANGENT": 2,
            "TEXCOORD_0": 3
          },
          "indices": 4,
          "material": 0,
          "mode": 4
        }
      ]
    }
  ],
  "nodes": [
    {
      "children": [
        1
      ],
      "matrix": [
        0.0795757994055748,
        0.0,
        0.0,
        0.0,
        0.0,
        1.7669376940604397e-17,
        -0.0795757994055748,
        0.0,
        0.0,
        0.0795757994055748,
        1.7669376940604397e-17,
        0.0,
        0.0,
        0.0,
        0.0,
        1.0
      ],
      "name": "Sketchfab_model"
    },
    {
      "children": [
        2
      ],
      "name": "190814_mia334_001218_50Kmesh_MLab2.obj.cleaner.materialmerger.gles"
    },
    {
      "mesh": 0,
      "name": "Object_2"
    }
  ],
  "samplers": [
    {
      "magFilter": 9729,
      "minFilter": 9987,
      "wrapS": 10497,
      "wrapT": 10497
    }
  ],
  "scene": 0,
  "scenes": [
    {
      "name": "Sketchfab_Scene",
      "nodes": [
        0
      ]
    }
  ],
  "textures": [
    {
      "sampler": 0,
      "source": 0
    },
    {
      "sampler": 0,
      "source": 1
    }
  ]
}
