{
  "accessors": [
    {
      "bufferView": 2,
      "componentType": 5126,
      "count": 32919,
      "max": [
        -5.085216045379639,
        10.134937286376953,
        8.237319946289063
      ],
      "min": [
        -5.297297954559326,
        10.030500411987305,
        8.096779823303223
      ],
      "type": "VEC3"
    },
    {
      "bufferView": 2,
      "byteOffset": 395028,
      "componentType": 5126,
      "count": 32919,
      "max": [
        0.9999868869781494,
        0.9999908804893494,
        0.9999488592147827
      ],
      "min": [
        -0.9996645450592041,
        -0.9999021291732788,
        -0.9999012351036072
      ],
      "type": "VEC3"
    },
    {
      "bufferView": 3,
      "componentType": 5126,
      "count": 32919,
      "max": [
        0.9974818229675293,
        0.9999164938926697,
        0.9999199509620667,
        1.0
      ],
      "min": [
        -0.9999430775642395,
        -0.9997736811637878,
        -0.9999651908874512,
        -1.0
      ],
      "type": "VEC4"
    },
    {
      "bufferView": 1,
      "componentType": 5126,
      "count": 32919,
      "max": [
        0.9997910261154175,
        0.9793170094490051
      ],
      "min": [
        2.2000000171829015e-05,
        0.00023400000645779073
      ],
      "type": "VEC2"
    },
    {
      "bufferView": 0,
      "componentType": 5125,
      "count": 192000,
      "type": "SCALAR"
    }
  ],
  "asset": {
    "extras": {
      "author": "Minneapolis Institute of Art (https://sketchfab.com/artsmia)",
      "license": "COPYRIGHT TO Minneapolis Institute of Art",
      "source": "https://sketchfab.com/3d-models/vessel-in-the-form-of-a-fish-100-bce-600-ce-c6d324bc7bfb4877a7b800f991e3aea2",
      "title": "Vessel in the Form of a Fish, 100 BCE - 600 CE"
    },
    "generator": "Sketchfab-15.53.0",
    "version": "2.0"
  },
  "bufferViews": [
    {
      "buffer": 0,
      "byteLength": 768000,
      "name": "floatBufferViews",
      "target": 34963
    },
    {
      "buffer": 0,
      "byteLength": 263352,
      "byteOffset": 768000,
      "byteStride": 8,
      "name": "floatBufferViews",
      "target": 34962
    },
    {
      "buffer": 0,
      "byteLength": 790056,
      "byteOffset": 1031352,
      "byteStride": 12,
      "name": "floatBufferViews",
      "target": 34962
    },
    {
      "buffer": 0,
      "byteLength": 526704,
      "byteOffset": 1821408,
      "byteStride": 16,
      "name": "floatBufferViews",
      "target": 34962
    }
  ],
  "buffers": [
    {
      "byteLength": 2348112,
      "uri": "scene.bin"
    }
  ],
  "extensionsRequired": [
    "KHR_materials_pbrSpecularGlossiness"
  ],
  "extensionsUsed": [
    "KHR_materials_pbrSpecularGlossiness"
  ],
  "images": [
    {
      "uri": "textures/Mia_000696_NascaFish_64k_diffuse.jpeg"
    },
    {
      "uri": "textures/Mia_000696_NascaFish_64k_specularGlossiness.png"
    },
    {
      "uri": "textures/Mia_000696_NascaFish_64k_normal.jpeg"
    },
    {
      "uri": "textures/Mia_000696_NascaFish_64k_occlusion.png"
    }
  ],
  "materials": [
    {
      "doubleSided": true,
      "emissiveFactor": [
        0.30000000000000004,
        0.30000000000000004,
        0.30000000000000004
      ],
      "emissiveTexture": {
        "index": 0
      },
      "extensions": {
        "KHR_materials_pbrSpecularGlossiness": {
          "diffuseFactor": [
            1.0,
            1.0,
            1.0,
            1.0
          ],
          "diffuseTexture": {
            "index": 0
          },
          "glossinessFactor": 0.8052162186190115,
          "specularFactor": [
            0.01,
            0.01,
            0.01
          ],
          "specularGlossinessTexture": {
            "index": 1
          }
        }
      },
      "name": "Mia_000696_NascaFish_64k",
      "normalTexture": {
        "index": 2
      },
      "occlusionTexture": {
        "index": 3
      }
    }
  ],
  "meshes": [
    {
      "name": "Object_0",
      "primitives": [
        {
          "attributes": {
            "NORMAL": 1,
            "POSITION": 0,
            "TANGENT": 2,
            "TEXCOORD_0": 3
          },
          "indices": 4,
          "material": 0,
          "mode": 4
        }
      ]
    }
  ],
  "nodes": [
    {
      "children": [
        1
      ],
      "matrix": [
        1.0,
        0.0,
        0.0,
        0.0,
        0.0,
        2.220446049250313e-16,
        -1.0,
        0.0,
        0.0,
        1.0,
        2.220446049250313e-16,
        0.0,
        0.0,
        0.0,
        0.0,
        1.0
      ],
      "name": "Sketchfab_model"
    },
    {
      "children": [
        2
      ],
      "name": "Mia_000696_NascaFish_64k.obj.cleaner.materialmerger.gles"
    },
    {
      "mesh": 0,
      "name": "Object_2"
    }
  ],
  "samplers": [
    {
      "magFilter": 9729,
      "minFilter": 9987,
      "wrapS": 10497,
      "wrapT": 10497
    }
  ],
  "scene": 0,
  "scenes": [
    {
      "name": "Sketchfab_Scene",
      "nodes": [
        0
      ]
    }
  ],
  "textures": [
    {
      "sampler": 0,
      "source": 0
    },
    {
      "sampler": 0,
      "source": 1
    },
    {
      "sampler": 0,
      "source": 2
    },
    {
      "sampler": 0,
      "source": 3
    }
  ]
}
