{
  "accessors": [
    {
      "bufferView": 2,
      "componentType": 5126,
      "count": 65532,
      "max": [
        11.994280815124512,
        5.677608013153076,
        9.203657150268555
      ],
      "min": [
        -12.230788230895996,
        -5.819611072540283,
        -7.130112171173096
      ],
      "type": "VEC3"
    },
    {
      "bufferView": 2,
      "byteOffset": 786384,
      "componentType": 5126,
      "count": 65532,
      "max": [
        0.9998878240585327,
        0.9999916553497314,
        0.9999853372573853
      ],
      "min": [
        -0.9999779462814331,
        -0.9999570846557617,
        -0.9999994039535522
      ],
      "type": "VEC3"
    },
    {
      "bufferView": 3,
      "componentType": 5126,
      "count": 65532,
      "max": [
        0.9999544620513916,
        0.9999882578849792,
        0.9999973773956299,
        1.0
      ],
      "min": [
        -0.9999886751174927,
        -0.9999938011169434,
        -0.9999963045120239,
        -1.0
      ],
      "type": "VEC4"
    },
    {
      "bufferView": 1,
      "componentType": 5126,
      "count": 65532,
      "max": [
        0.9610599875450134,
        0.999530017375946
      ],
      "min": [
        0.0013780000153928995,
        0.0005409999866969883
      ],
      "type": "VEC2"
    },
    {
      "bufferView": 0,
      "componentType": 5125,
      "count": 369486,
      "type": "SCALAR"
    },
    {
      "bufferView": 2,
      "byteOffset": 1572768,
      "componentType": 5126,
      "count": 3495,
      "max": [
        -7.357210159301758,
        3.6413381099700928,
        7.8501877784729
      ],
      "min": [
        -11.271499633789063,
        -3.9092249870300293,
        -2.1634349822998047
      ],
      "type": "VEC3"
    },
    {
      "bufferView": 2,
      "byteOffset": 1614708,
      "componentType": 5126,
      "count": 3495,
      "max": [
        0.8914166688919067,
        0.9987639784812927,
        0.9921875
      ],
      "min": [
        -0.9999010562896729,
        -0.9998771548271179,
        -0.9995788931846619
      ],
      "type": "VEC3"
    },
    {
      "bufferView": 3,
      "byteOffset": 1048512,
      "componentType": 5126,
      "count": 3495,
      "max": [
        0.9838862419128418,
        0.9683763384819031,
        0.9996620416641235,
        1.0
      ],
      "min": [
        -0.9974183440208435,
        -0.9982588291168213,
        -0.9992520213127136,
        -1.0
      ],
      "type": "VEC4"
    },
    {
      "bufferView": 1,
      "byteOffset": 524256,
      "componentType": 5126,
      "count": 3495,
      "max": [
        0.9592949748039246,
        0.9708200097084045
      ],
      "min": [
        0.0015640000347048044,
        0.06314300000667572
      ],
      "type": "VEC2"
    },
    {
      "bufferView": 0,
      "byteOffset": 1477944,
      "componentType": 5125,
      "count": 12693,
      "type": "SCALAR"
    }
  ],
  "asset": {
    "extras": {
      "author": "Cleveland Museum of Art (https://sketchfab.com/clevelandart)",
      "license": "CC0-1.0 (http://creativecommons.org/publicdomain/zero/1.0/)",
      "source": "https://sketchfab.com/3d-models/198016-piggy-bank-14bfd106baf14d62aebf6eafbe25b3c3",
      "title": "1980.16 Piggy Bank"
    },
    "generator": "Sketchfab-12.68.0",
    "version": "2.0"
  },
  "bufferViews": [
    {
      "buffer": 0,
      "byteLength": 1528716,
      "name": "floatBufferViews",
      "target": 34963
    },
    {
      "buffer": 0,
      "byteLength": 552216,
      "byteOffset": 1528716,
      "byteStride": 8,
      "name": "floatBufferViews",
      "target": 34962
    },
    {
      "buffer": 0,
      "byteLength": 1656648,
      "byteOffset": 2080932,
      "byteStride": 12,
      "name": "floatBufferViews",
      "target": 34962
    },
    {
      "buffer": 0,
      "byteLength": 1104432,
      "byteOffset": 3737580,
      "byteStride": 16,
      "name": "floatBufferViews",
      "target": 34962
    }
  ],
  "buffers": [
    {
      "byteLength": 4842012,
      "uri": "scene.bin"
    }
  ],
  "images": [
    {
      "uri": "textures/1980.16_Piggy_Bank_100k_baseColor.png"
    },
    {
      "uri": "textures/1980.16_Piggy_Bank_100k_metallicRoughness.png"
    },
    {
      "uri": "textures/1980.16_Piggy_Bank_100k_normal.png"
    }
  ],
  "materials": [
    {
      "doubleSided": true,
      "emissiveFactor": [
        0.7,
        0.7,
        0.7
      ],
      "emissiveTexture": {
        "index": 0
      },
      "name": "1980.16_Piggy_Bank_100k",
      "normalTexture": {
        "index": 2
      },
      "occlusionTexture": {
        "index": 1
      },
      "pbrMetallicRoughness": {
        "baseColorTexture": {
          "index": 0
        },
        "metallicFactor": 0.4468368902,
        "metallicRoughnessTexture": {
          "index": 1
        },
        "roughnessFactor": 0.6
      }
    }
  ],
  "meshes": [
    {
      "name": "Object_0",
      "primitives": [
        {
          "attributes": {
            "NORMAL": 1,
            "POSITION": 0,
            "TANGENT": 2,
            "TEXCOORD_0": 3
          },
          "indices": 4,
          "material": 0,
          "mode": 4
        }
      ]
    },
    {
      "name": "Object_1",
      "primitives": [
        {
          "attributes": {
            "NORMAL": 6,
            "POSITION": 5,
            "TANGENT": 7,
            "TEXCOORD_0": 8
          },
          "indices": 9,
          "material": 0,
          "mode": 4
        }
      ]
    }
  ],
  "nodes": [
    {
      "children": [
        1
      ],
      "matrix": [
        1.0,
        0.0,
        0.0,
        0.0,
        0.0,
        2.220446049250313e-16,
        -1.0,
        0.0,
        0.0,
        1.0,
        2.220446049250313e-16,
        0.0,
        0.0,
        0.0,
        0.0,
        1.0
      ],
      "name": "Sketchfab_model"
    },
    {
      "children": [
        2,
        3
      ],
      "name": "1980.16 Piggy Bank 100K.obj.cleaner.materialmerger.gles"
    },
    {
      "mesh": 0,
      "name": "Object_2"
    },
    {
      "mesh": 1,
      "name": "Object_3"
    }
  ],
  "samplers": [
    {
      "magFilter": 9729,
      "minFilter": 9987,
      "wrapS": 10497,
      "wrapT": 10497
    }
  ],
  "scene": 0,
  "scenes": [
    {
      "name": "Sketchfab_Scene",
      "nodes": [
        0
      ]
    }
  ],
  "textures": [
    {
      "sampler": 0,
      "source": 0
    },
    {
      "sampler": 0,
      "source": 1
    },
    {
      "sampler": 0,
      "source": 2
    }
  ]
}
