{
  "accessors": [
    {
      "bufferView": 2,
      "componentType": 5126,
      "count": 32586,
      "max": [
        -0.23467199504375458,
        24.461830139160156,
        -16.317562103271484
      ],
      "min": [
        -0.4203509986400604,
        24.27853012084961,
        -16.407991409301758
      ],
      "type": "VEC3"
    },
    {
      "bufferView": 2,
      "byteOffset": 391032,
      "componentType": 5126,
      "count": 32586,
      "max": [
        0.9998670220375061,
        0.9998202323913574,
        0.9999796152114868
      ],
      "min": [
        -0.9999577403068542,
        -0.9997838735580444,
        -0.9999931454658508
      ],
      "type": "VEC3"
    },
    {
      "bufferView": 3,
      "componentType": 5126,
      "count": 32586,
      "max": [
        0.9968500137329102,
        0.9999088644981384,
        0.9986661672592163,
        1.0
      ],
      "min": [
        -0.9999948143959045,
        -0.9998378157615662,
        -0.9888718128204346,
        -1.0
      ],
      "type": "VEC4"
    },
    {
      "bufferView": 1,
      "componentType": 5126,
      "count": 32586,
      "max": [
        0.9999110102653503,
        0.9889299869537354
      ],
      "min": [
        2.8000000384054147e-05,
        0.00010599999950500205
      ],
      "type": "VEC2"
    },
    {
      "bufferView": 0,
      "componentType": 5125,
      "count": 192000,
      "type": "SCALAR"
    }
  ],
  "asset": {
    "extras": {
      "author": "Minneapolis Institute of Art (https://sketchfab.com/artsmia)",
      "license": "CC0-1.0 (http://creativecommons.org/publicdomain/zero/1.0/)",
      "source": "https://sketchfab.com/3d-models/minai-ware-bowl-depicting-ladies-on-horseback-b4eaea5155df432bbd01fb2a34204191",
      "title": "Mina’i ware ‘Bowl Depicting Ladies on Horseback'"
    },
    "generator": "Sketchfab-12.63.0",
    "version": "2.0"
  },
  "bufferViews": [
    {
      "buffer": 0,
      "byteLength": 768000,
      "name": "floatBufferViews",
      "target": 34963
    },
    {
      "buffer": 0,
      "byteLength": 260688,
      "byteOffset": 768000,
      "byteStride": 8,
      "name": "floatBufferViews",
      "target": 34962
    },
    {
      "buffer": 0,
      "byteLength": 782064,
      "byteOffset": 1028688,
      "byteStride": 12,
      "name": "floatBufferViews",
      "target": 34962
    },
    {
      "buffer": 0,
      "byteLength": 521376,
      "byteOffset": 1810752,
      "byteStride": 16,
      "name": "floatBufferViews",
      "target": 34962
    }
  ],
  "buffers": [
    {
      "byteLength": 2332128,
      "uri": "scene.bin"
    }
  ],
  "extensionsUsed": [
    "KHR_materials_clearcoat"
  ],
  "images": [
    {
      "uri": "textures/Mia_001094_HorseBowl_64k_baseColor.jpeg"
    },
    {
      "uri": "textures/Mia_001094_HorseBowl_64k_metallicRoughness.png"
    },
    {
      "uri": "textures/Mia_001094_HorseBowl_64k_normal.png"
    }
  ],
  "materials": [
    {
      "doubleSided": true,
      "extensions": {
        "KHR_materials_clearcoat": {
          "clearcoatFactor": 0.11376108597162442,
          "clearcoatRoughnessFactor": 0.263091897273478
        }
      },
      "name": "Mia_001094_HorseBowl_64k",
      "normalTexture": {
        "index": 2
      },
      "occlusionTexture": {
        "index": 1
      },
      "pbrMetallicRoughness": {
        "baseColorTexture": {
          "index": 0
        },
        "metallicFactor": 0.0,
        "metallicRoughnessTexture": {
          "index": 1
        }
      }
    }
  ],
  "meshes": [
    {
      "name": "Object_0",
      "primitives": [
        {
          "attributes": {
            "NORMAL": 1,
            "POSITION": 0,
            "TANGENT": 2,
            "TEXCOORD_0": 3
          },
          "indices": 4,
          "material": 0,
          "mode": 4
        }
      ]
    }
  ],
  "nodes": [
    {
      "children": [
        1
      ],
      "matrix": [
        1.0,
        0.0,
        0.0,
        0.0,
        0.0,
        2.220446049250313e-16,
        -1.0,
        0.0,
        0.0,
        1.0,
        2.220446049250313e-16,
        0.0,
        0.0,
        0.0,
        0.0,
        1.0
      ],
      "name": "Sketchfab_model"
    },
    {
      "children": [
        2
      ],
      "name": "Mia_001094_HorseBowl_64k.obj.cleaner.materialmerger.gles"
    },
    {
      "mesh": 0,
      "name": "Object_2"
    }
  ],
  "samplers": [
    {
      "magFilter": 9729,
      "minFilter": 9987,
      "wrapS": 10497,
      "wrapT": 10497
    }
  ],
  "scene": 0,
  "scenes": [
    {
      "name": "Sketchfab_Scene",
      "nodes": [
        0
      ]
    }
  ],
  "textures": [
    {
      "sampler": 0,
      "source": 0
    },
    {
      "sampler": 0,
      "source": 1
    },
    {
      "sampler": 0,
      "source": 2
    }
  ]
}
