{
  "accessors": [
    {
      "bufferView": 2,
      "componentType": 5126,
      "count": 65532,
      "max": [
        2.6790030002593994,
        0.030401000753045082,
        2.702528953552246
      ],
      "min": [
        -2.6935079097747803,
        -0.04150500148534775,
        -2.714674949645996
      ],
      "type": "VEC3"
    },
    {
      "bufferView": 2,
      "byteOffset": 786384,
      "componentType": 5126,
      "count": 65532,
      "max": [
        0.9999904632568359,
        0.9995322227478027,
        0.9999995231628418
      ],
      "min": [
        -0.9999970197677612,
        -1.0,
        -0.9999895095825195
      ],
      "type": "VEC3"
    },
    {
      "bufferView": 3,
      "componentType": 5126,
      "count": 65532,
      "max": [
        0.9999992251396179,
        0.9999954700469971,
        0.9999950528144836,
        1.0
      ],
      "min": [
        -0.6900107860565186,
        -0.9999988675117493,
        -0.9998512268066406,
        1.0
      ],
      "type": "VEC4"
    },
    {
      "bufferView": 1,
      "componentType": 5126,
      "count": 65532,
      "max": [
        0.9968420267105103,
        1.0001599788665771
      ],
      "min": [
        -0.00015300000086426735,
        0.00026699999580159783
      ],
      "type": "VEC2"
    },
    {
      "bufferView": 0,
      "componentType": 5125,
      "count": 65532,
      "type": "SCALAR"
    },
    {
      "bufferView": 2,
      "byteOffset": 1572768,
      "componentType": 5126,
      "count": 19473,
      "max": [
        2.6786561012268066,
        0.0237869992852211,
        2.690027952194214
      ],
      "min": [
        -2.6935079097747803,
        -0.04058700054883957,
        -2.6959400177001953
      ],
      "type": "VEC3"
    },
    {
      "bufferView": 2,
      "byteOffset": 1806444,
      "componentType": 5126,
      "count": 19473,
      "max": [
        0.9999943375587463,
        0.9566603899002075,
        0.9999843835830688
      ],
      "min": [
        -0.9998106360435486,
        -1.0,
        -0.999993622303009
      ],
      "type": "VEC3"
    },
    {
      "bufferView": 3,
      "byteOffset": 1048512,
      "componentType": 5126,
      "count": 19473,
      "max": [
        0.9999948740005493,
        0.9999875426292419,
        0.9999850392341614,
        1.0
      ],
      "min": [
        -0.6838346719741821,
        -0.9999942183494568,
        -0.9784088134765625,
        1.0
      ],
      "type": "VEC4"
    },
    {
      "bufferView": 1,
      "byteOffset": 524256,
      "componentType": 5126,
      "count": 19473,
      "max": [
        0.9968420267105103,
        0.9999809861183167
      ],
      "min": [
        -0.00015300000086426735,
        0.00026699999580159783
      ],
      "type": "VEC2"
    },
    {
      "bufferView": 0,
      "byteOffset": 262128,
      "componentType": 5125,
      "count": 19473,
      "type": "SCALAR"
    },
    {
      "bufferView": 2,
      "byteOffset": 2040120,
      "componentType": 5126,
      "count": 120,
      "max": [
        2.855329990386963,
        0.1720370054244995,
        2.852121114730835
      ],
      "min": [
        -2.864197015762329,
        -0.24527500569820404,
        -2.8598320484161377
      ],
      "type": "VEC3"
    },
    {
      "bufferView": 2,
      "byteOffset": 2041560,
      "componentType": 5126,
      "count": 120,
      "max": [
        0.9999997615814209,
        1.0,
        1.0
      ],
      "min": [
        -0.9999997615814209,
        -1.0,
        -1.0
      ],
      "type": "VEC3"
    },
    {
      "bufferView": 3,
      "byteOffset": 1360080,
      "componentType": 5126,
      "count": 120,
      "max": [
        0.007875494658946991,
        0.9999859929084778,
        0.9999822378158569,
        1.0
      ],
      "min": [
        -0.0013809626689180732,
        -0.9999850988388062,
        -0.9999879002571106,
        1.0
      ],
      "type": "VEC4"
    },
    {
      "bufferView": 1,
      "byteOffset": 680040,
      "componentType": 5126,
      "count": 120,
      "max": [
        0.9957550168037415,
        0.9485489726066589
      ],
      "min": [
        0.4369269907474518,
        0.6371570229530334
      ],
      "type": "VEC2"
    },
    {
      "bufferView": 0,
      "byteOffset": 340020,
      "componentType": 5125,
      "count": 180,
      "type": "SCALAR"
    }
  ],
  "asset": {
    "extras": {
      "author": "Minneapolis Institute of Art (https://sketchfab.com/artsmia)",
      "license": "CC-BY-NC-SA-4.0 (http://creativecommons.org/licenses/by-nc-sa/4.0/)",
      "source": "https://sketchfab.com/3d-models/yamantaka-mandala-1991-9ec9a60a7ded457ea699b2f758c93dae",
      "title": "Yamantaka Mandala, 1991"
    },
    "generator": "Sketchfab-12.63.0",
    "version": "2.0"
  },
  "bufferViews": [
    {
      "buffer": 0,
      "byteLength": 340740,
      "name": "floatBufferViews",
      "target": 34963
    },
    {
      "buffer": 0,
      "byteLength": 681000,
      "byteOffset": 340740,
      "byteStride": 8,
      "name": "floatBufferViews",
      "target": 34962
    },
    {
      "buffer": 0,
      "byteLength": 2043000,
      "byteOffset": 1021740,
      "byteStride": 12,
      "name": "floatBufferViews",
      "target": 34962
    },
    {
      "buffer": 0,
      "byteLength": 1362000,
      "byteOffset": 3064740,
      "byteStride": 16,
      "name": "floatBufferViews",
      "target": 34962
    }
  ],
  "buffers": [
    {
      "byteLength": 4426740,
      "uri": "scene.bin"
    }
  ],
  "images": [
    {
      "uri": "textures/lambert3SG_baseColor.png"
    },
    {
      "uri": "textures/lambert3SG_metallicRoughness.png"
    },
    {
      "uri": "textures/lambert3SG_normal.png"
    },
    {
      "uri": "textures/lambert4SG_baseColor.png"
    },
    {
      "uri": "textures/lambert4SG_metallicRoughness.png"
    },
    {
      "uri": "textures/lambert4SG_normal.png"
    }
  ],
  "materials": [
    {
      "doubleSided": true,
      "name": "lambert3SG",
      "normalTexture": {
        "index": 2
      },
      "occlusionTexture": {
        "index": 1
      },
      "pbrMetallicRoughness": {
        "baseColorTexture": {
          "index": 0
        },
        "metallicFactor": 0.0,
        "metallicRoughnessTexture": {
          "index": 1
        },
        "roughnessFactor": 0.7700076219512195
      }
    },
    {
      "doubleSided": true,
      "name": "lambert4SG",
      "normalTexture": {
        "index": 5
      },
      "occlusionTexture": {
        "index": 4
      },
      "pbrMetallicRoughness": {
        "baseColorTexture": {
          "index": 3
        },
        "metallicFactor": 0.0,
        "metallicRoughnessTexture": {
          "index": 4
        },
        "roughnessFactor": 0.6785442073170732
      }
    }
  ],
  "meshes": [
    {
      "name": "Object_0",
      "primitives": [
        {
          "attributes": {
            "NORMAL": 1,
            "POSITION": 0,
            "TANGENT": 2,
            "TEXCOORD_0": 3
          },
          "indices": 4,
          "material": 0,
          "mode": 4
        }
      ]
    },
    {
      "name": "Object_1",
      "primitives": [
        {
          "attributes": {
            "NORMAL": 6,
            "POSITION": 5,
            "TANGENT": 7,
            "TEXCOORD_0": 8
          },
          "indices": 9,
          "material": 0,
          "mode": 4
        }
      ]
    },
    {
      "name": "Object_2",
      "primitives": [
        {
          "attributes": {
            "NORMAL": 11,
            "POSITION": 10,
            "TANGENT": 12,
            "TEXCOORD_0": 13
          },
          "indices": 14,
          "material": 1,
          "mode": 4
        }
      ]
    }
  ],
  "nodes": [
    {
      "children": [
        1
      ],
      "matrix": [
        0.5821712017059326,
        0.0,
        0.0,
        0.0,
        0.0,
        -0.5821712017059326,
        -2.5853594896304904e-16,
        0.0,
        0.0,
        2.5853594896304904e-16,
        -0.5821712017059326,
        0.0,
        0.0,
        -0.040474765002727515,
        0.032763592898845666,
        1.0
      ],
      "name": "Sketchfab_model"
    },
    {
      "children": [
        2,
        3,
        4
      ],
      "name": "Yamantaka_Mandala.obj.cleaner.materialmerger.gles"
    },
    {
      "mesh": 0,
      "name": "Object_2"
    },
    {
      "mesh": 1,
      "name": "Object_3"
    },
    {
      "mesh": 2,
      "name": "Object_4"
    }
  ],
  "samplers": [
    {
      "magFilter": 9729,
      "minFilter": 9987,
      "wrapS": 10497,
      "wrapT": 10497
    }
  ],
  "scene": 0,
  "scenes": [
    {
      "name": "Sketchfab_Scene",
      "nodes": [
        0
      ]
    }
  ],
  "textures": [
    {
      "sampler": 0,
      "source": 0
    },
    {
      "sampler": 0,
      "source": 1
    },
    {
      "sampler": 0,
      "source": 2
    },
    {
      "sampler": 0,
      "source": 3
    },
    {
      "sampler": 0,
      "source": 4
    },
    {
      "sampler": 0,
      "source": 5
    }
  ]
}
