{
  "accessors": [
    {
      "bufferView": 2,
      "componentType": 5126,
      "count": 33616,
      "max": [
        4.126143932342529,
        0.8938450217247009,
        7.608838081359863
      ],
      "min": [
        0.34953099489212036,
        0.7869189977645874,
        5.885894775390625
      ],
      "type": "VEC3"
    },
    {
      "bufferView": 2,
      "byteOffset": 403392,
      "componentType": 5126,
      "count": 33616,
      "max": [
        0.9984323382377625,
        0.9999656677246094,
        0.9999536275863647
      ],
      "min": [
        -0.9989713430404663,
        -0.9999994039535522,
        -0.9999251365661621
      ],
      "type": "VEC3"
    },
    {
      "bufferView": 3,
      "componentType": 5126,
      "count": 33616,
      "max": [
        0.28918683528900146,
        0.9982912540435791,
        0.9999995827674866,
        1.0
      ],
      "min": [
        -0.3296442925930023,
        -0.9999551773071289,
        -0.08023218810558319,
        -1.0
      ],
      "type": "VEC4"
    },
    {
      "bufferView": 1,
      "componentType": 5126,
      "count": 33616,
      "max": [
        0.45519500970840454,
        0.9952899813652039
      ],
      "min": [
        0.0039059999398887157,
        0.0039059999398887157
      ],
      "type": "VEC2"
    },
    {
      "bufferView": 0,
      "componentType": 5125,
      "count": 191916,
      "type": "SCALAR"
    }
  ],
  "asset": {
    "extras": {
      "author": "Minneapolis Institute of Art (https://sketchfab.com/artsmia)",
      "license": "CC-BY-NC-SA-4.0 (http://creativecommons.org/licenses/by-nc-sa/4.0/)",
      "source": "https://sketchfab.com/3d-models/scenes-in-and-around-kyoto-early-17th-c-ce-140a5d5a620d457490ae950b74c99e59",
      "title": "Scenes in and around Kyoto, early 17th C CE"
    },
    "generator": "Sketchfab-14.5.0",
    "version": "2.0"
  },
  "bufferViews": [
    {
      "buffer": 0,
      "byteLength": 767664,
      "name": "floatBufferViews",
      "target": 34963
    },
    {
      "buffer": 0,
      "byteLength": 268928,
      "byteOffset": 767664,
      "byteStride": 8,
      "name": "floatBufferViews",
      "target": 34962
    },
    {
      "buffer": 0,
      "byteLength": 806784,
      "byteOffset": 1036592,
      "byteStride": 12,
      "name": "floatBufferViews",
      "target": 34962
    },
    {
      "buffer": 0,
      "byteLength": 537856,
      "byteOffset": 1843376,
      "byteStride": 16,
      "name": "floatBufferViews",
      "target": 34962
    }
  ],
  "buffers": [
    {
      "byteLength": 2381232,
      "uri": "tf.bin"
    }
  ],
  "extensionsRequired": [
    "KHR_materials_pbrSpecularGlossiness"
  ],
  "extensionsUsed": [
    "KHR_materials_pbrSpecularGlossiness"
  ],
  "images": [
    {
      "uri": "textures/Mia_122164_KyotoScenes_64k_diffuse.jpeg"
    },
    {
      "uri": "textures/Mia_122164_KyotoScenes_64k_normal.png"
    },
    {
      "uri": "textures/Mia_122164_KyotoScenes_64k_occlusion.png"
    }
  ],
  "materials": [
    {
      "doubleSided": true,
      "extensions": {
        "KHR_materials_pbrSpecularGlossiness": {
          "diffuseFactor": [
            1.0,
            1.0,
            1.0,
            1.0
          ],
          "diffuseTexture": {
            "index": 0
          },
          "glossinessFactor": 0.0,
          "specularFactor": [
            0.09245046737767082,
            0.0976294975140907,
            0.022116400971328776
          ]
        }
      },
      "name": "Mia_122164_KyotoScenes_64k",
      "normalTexture": {
        "index": 1
      },
      "occlusionTexture": {
        "index": 2
      }
    }
  ],
  "meshes": [
    {
      "name": "Object_0",
      "primitives": [
        {
          "attributes": {
            "NORMAL": 1,
            "POSITION": 0,
            "TANGENT": 2,
            "TEXCOORD_0": 3
          },
          "indices": 4,
          "material": 0,
          "mode": 4
        }
      ]
    }
  ],
  "nodes": [
    {
      "children": [
        1
      ],
      "matrix": [
        1.0,
        0.0,
        0.0,
        0.0,
        0.0,
        2.220446049250313e-16,
        -1.0,
        0.0,
        0.0,
        1.0,
        2.220446049250313e-16,
        0.0,
        0.0,
        0.0,
        0.0,
        1.0
      ],
      "name": "Sketchfab_model"
    },
    {
      "children": [
        2
      ],
      "name": "Mia_122164_KyotoScenes_64k.obj.cleaner.materialmerger.gles"
    },
    {
      "mesh": 0,
      "name": "Object_2"
    }
  ],
  "samplers": [
    {
      "magFilter": 9729,
      "minFilter": 9987,
      "wrapS": 10497,
      "wrapT": 10497
    }
  ],
  "scene": 0,
  "scenes": [
    {
      "name": "Sketchfab_Scene",
      "nodes": [
        0
      ]
    }
  ],
  "textures": [
    {
      "sampler": 0,
      "source": 0
    },
    {
      "sampler": 0,
      "source": 1
    },
    {
      "sampler": 0,
      "source": 2
    }
  ]
}
