{
  "accessors": [
    {
      "bufferView": 2,
      "componentType": 5126,
      "count": 33701,
      "max": [
        0.18161800503730774,
        0.7016479969024658,
        0.12339399755001068
      ],
      "min": [
        -0.19958500564098358,
        0.510204017162323,
        -0.19360600411891937
      ],
      "type": "VEC3"
    },
    {
      "bufferView": 2,
      "byteOffset": 404412,
      "componentType": 5126,
      "count": 33701,
      "max": [
        0.9999499917030334,
        0.9999986290931702,
        0.999870777130127
      ],
      "min": [
        -0.9999489784240723,
        -0.9999472498893738,
        -0.9999688863754272
      ],
      "type": "VEC3"
    },
    {
      "bufferView": 3,
      "componentType": 5126,
      "count": 33701,
      "max": [
        0.9999992251396179,
        0.9999848008155823,
        0.9999925494194031,
        1.0
      ],
      "min": [
        -0.9997758865356445,
        -0.9986011385917664,
        -0.9998432993888855,
        -1.0
      ],
      "type": "VEC4"
    },
    {
      "bufferView": 1,
      "componentType": 5126,
      "count": 33701,
      "max": [
        0.9999189972877502,
        0.9938899874687195
      ],
      "min": [
        3.000000106112566e-06,
        3.7999998312443495e-05
      ],
      "type": "VEC2"
    },
    {
      "bufferView": 0,
      "componentType": 5125,
      "count": 191997,
      "type": "SCALAR"
    }
  ],
  "asset": {
    "extras": {
      "author": "Minneapolis Institute of Art (https://sketchfab.com/artsmia)",
      "license": "CC0-1.0 (http://creativecommons.org/publicdomain/zero/1.0/)",
      "source": "https://sketchfab.com/3d-models/thai-water-buffalo-vessel-c-1000-bce-6865dfe0972f46f2ba133ebc9e993fd8",
      "title": "Thai water buffalo vessel, c. 1000 BCE"
    },
    "generator": "Sketchfab-12.63.0",
    "version": "2.0"
  },
  "bufferViews": [
    {
      "buffer": 0,
      "byteLength": 767988,
      "name": "floatBufferViews",
      "target": 34963
    },
    {
      "buffer": 0,
      "byteLength": 269608,
      "byteOffset": 767988,
      "byteStride": 8,
      "name": "floatBufferViews",
      "target": 34962
    },
    {
      "buffer": 0,
      "byteLength": 808824,
      "byteOffset": 1037596,
      "byteStride": 12,
      "name": "floatBufferViews",
      "target": 34962
    },
    {
      "buffer": 0,
      "byteLength": 539216,
      "byteOffset": 1846420,
      "byteStride": 16,
      "name": "floatBufferViews",
      "target": 34962
    }
  ],
  "buffers": [
    {
      "byteLength": 2385636,
      "uri": "scene.bin"
    }
  ],
  "images": [
    {
      "uri": "textures/Mia_012963_WaterBuffalo_OBJ_baseColor.jpeg"
    },
    {
      "uri": "textures/Mia_012963_WaterBuffalo_OBJ_metallicRoughness.png"
    },
    {
      "uri": "textures/Mia_012963_WaterBuffalo_OBJ_normal.png"
    }
  ],
  "materials": [
    {
      "doubleSided": true,
      "name": "Mia_012963_WaterBuffalo_OBJ",
      "normalTexture": {
        "index": 2
      },
      "occlusionTexture": {
        "index": 1
      },
      "pbrMetallicRoughness": {
        "baseColorTexture": {
          "index": 0
        },
        "metallicFactor": 0.0,
        "metallicRoughnessTexture": {
          "index": 1
        }
      }
    }
  ],
  "meshes": [
    {
      "name": "Object_0",
      "primitives": [
        {
          "attributes": {
            "NORMAL": 1,
            "POSITION": 0,
            "TANGENT": 2,
            "TEXCOORD_0": 3
          },
          "indices": 4,
          "material": 0,
          "mode": 4
        }
      ]
    }
  ],
  "nodes": [
    {
      "children": [
        1
      ],
      "matrix": [
        1.0,
        0.0,
        0.0,
        0.0,
        0.0,
        2.220446049250313e-16,
        -1.0,
        0.0,
        0.0,
        1.0,
        2.220446049250313e-16,
        0.0,
        0.0,
        0.0,
        0.0,
        1.0
      ],
      "name": "Sketchfab_model"
    },
    {
      "children": [
        2
      ],
      "name": "Mia_012963_WaterBuffalo_OBJ.obj.cleaner.materialmerger.gles"
    },
    {
      "mesh": 0,
      "name": "Object_2"
    }
  ],
  "samplers": [
    {
      "magFilter": 9729,
      "minFilter": 9987,
      "wrapS": 10497,
      "wrapT": 10497
    }
  ],
  "scene": 0,
  "scenes": [
    {
      "name": "Sketchfab_Scene",
      "nodes": [
        0
      ]
    }
  ],
  "textures": [
    {
      "sampler": 0,
      "source": 0
    },
    {
      "sampler": 0,
      "source": 1
    },
    {
      "sampler": 0,
      "source": 2
    }
  ]
}
