{
  "accessors": [
    {
      "bufferView": 2,
      "componentType": 5126,
      "count": 34162,
      "max": [
        0.8621469736099243,
        1.0245709419250488,
        0.819582998752594
      ],
      "min": [
        -0.6172729730606079,
        0.9496189951896667,
        -0.5407879948616028
      ],
      "type": "VEC3"
    },
    {
      "bufferView": 2,
      "byteOffset": 409944,
      "componentType": 5126,
      "count": 34162,
      "max": [
        0.998894214630127,
        0.999963104724884,
        0.9997085332870483
      ],
      "min": [
        -0.9983246326446533,
        -1.0,
        -0.9998158812522888
      ],
      "type": "VEC3"
    },
    {
      "bufferView": 3,
      "componentType": 5126,
      "count": 34162,
      "max": [
        0.9999997019767761,
        0.9987719655036926,
        0.9999979734420776,
        1.0
      ],
      "min": [
        -0.9997652173042297,
        -0.9919290542602539,
        -0.9999663829803467,
        -1.0
      ],
      "type": "VEC4"
    },
    {
      "bufferView": 1,
      "componentType": 5126,
      "count": 34162,
      "max": [
        0.9999459981918335,
        0.8703569769859314
      ],
      "min": [
        1.700000029813964e-05,
        6.199999916134402e-05
      ],
      "type": "VEC2"
    },
    {
      "bufferView": 0,
      "componentType": 5125,
      "count": 191997,
      "type": "SCALAR"
    }
  ],
  "asset": {
    "extras": {
      "author": "Minneapolis Institute of Art (https://sketchfab.com/artsmia)",
      "license": "CC0-1.0 (http://creativecommons.org/publicdomain/zero/1.0/)",
      "source": "https://sketchfab.com/3d-models/saint-martin-and-the-beggar-c-1375-1385-ce-7e45386b1c5e4ea0a8ff0bcd00b21bb3",
      "title": "Saint Martin and the Beggar, c. 1375-1385 CE"
    },
    "generator": "Sketchfab-12.65.0",
    "version": "2.0"
  },
  "bufferViews": [
    {
      "buffer": 0,
      "byteLength": 767988,
      "name": "floatBufferViews",
      "target": 34963
    },
    {
      "buffer": 0,
      "byteLength": 273296,
      "byteOffset": 767988,
      "byteStride": 8,
      "name": "floatBufferViews",
      "target": 34962
    },
    {
      "buffer": 0,
      "byteLength": 819888,
      "byteOffset": 1041284,
      "byteStride": 12,
      "name": "floatBufferViews",
      "target": 34962
    },
    {
      "buffer": 0,
      "byteLength": 546592,
      "byteOffset": 1861172,
      "byteStride": 16,
      "name": "floatBufferViews",
      "target": 34962
    }
  ],
  "buffers": [
    {
      "byteLength": 2407764,
      "uri": "scene.bin"
    }
  ],
  "images": [
    {
      "uri": "textures/Mia_137806_64Kmesh_OBJ_baseColor.jpeg"
    },
    {
      "uri": "textures/Mia_137806_64Kmesh_OBJ_metallicRoughness.png"
    },
    {
      "uri": "textures/Mia_137806_64Kmesh_OBJ_normal.png"
    }
  ],
  "materials": [
    {
      "doubleSided": true,
      "name": "Mia_137806_64Kmesh_OBJ",
      "normalTexture": {
        "index": 2
      },
      "occlusionTexture": {
        "index": 1
      },
      "pbrMetallicRoughness": {
        "baseColorTexture": {
          "index": 0
        },
        "metallicFactor": 0.0,
        "metallicRoughnessTexture": {
          "index": 1
        }
      }
    }
  ],
  "meshes": [
    {
      "name": "Object_0",
      "primitives": [
        {
          "attributes": {
            "NORMAL": 1,
            "POSITION": 0,
            "TANGENT": 2,
            "TEXCOORD_0": 3
          },
          "indices": 4,
          "material": 0,
          "mode": 4
        }
      ]
    }
  ],
  "nodes": [
    {
      "children": [
        1
      ],
      "matrix": [
        1.0,
        0.0,
        0.0,
        0.0,
        0.0,
        2.220446049250313e-16,
        -1.0,
        0.0,
        0.0,
        1.0,
        2.220446049250313e-16,
        0.0,
        0.0,
        0.0,
        0.0,
        1.0
      ],
      "name": "Sketchfab_model"
    },
    {
      "children": [
        2
      ],
      "name": "Mia_137806_64Kmesh_OBJ.obj.cleaner.materialmerger.gles"
    },
    {
      "mesh": 0,
      "name": "Object_2"
    }
  ],
  "samplers": [
    {
      "magFilter": 9729,
      "minFilter": 9987,
      "wrapS": 10497,
      "wrapT": 10497
    }
  ],
  "scene": 0,
  "scenes": [
    {
      "name": "Sketchfab_Scene",
      "nodes": [
        0
      ]
    }
  ],
  "textures": [
    {
      "sampler": 0,
      "source": 0
    },
    {
      "sampler": 0,
      "source": 1
    },
    {
      "sampler": 0,
      "source": 2
    }
  ]
}
