{
  "accessors": [
    {
      "bufferView": 2,
      "componentType": 5126,
      "count": 65532,
      "max": [
        0.180307999253273,
        -0.7776790261268616,
        0.2742609977722168
      ],
      "min": [
        -0.3897939920425415,
        -0.8310689926147461,
        -0.39584600925445557
      ],
      "type": "VEC3"
    },
    {
      "bufferView": 2,
      "byteOffset": 786384,
      "componentType": 5126,
      "count": 65532,
      "max": [
        0.9992708563804626,
        1.0,
        0.9991897344589233
      ],
      "min": [
        -0.9741028547286987,
        -0.9999278783798218,
        -0.9999937415122986
      ],
      "type": "VEC3"
    },
    {
      "bufferView": 1,
      "componentType": 5126,
      "count": 65532,
      "max": [
        0.9994630217552185,
        0.9996280074119568
      ],
      "min": [
        0.0029929999727755785,
        0.002643000101670623
      ],
      "type": "VEC2"
    },
    {
      "bufferView": 0,
      "componentType": 5125,
      "count": 355575,
      "type": "SCALAR"
    },
    {
      "bufferView": 2,
      "byteOffset": 1572768,
      "componentType": 5126,
      "count": 19182,
      "max": [
        -0.09789899736642838,
        -0.7814289927482605,
        0.2623730003833771
      ],
      "min": [
        -0.36479100584983826,
        -0.8139449954032898,
        -0.40087398886680603
      ],
      "type": "VEC3"
    },
    {
      "bufferView": 2,
      "byteOffset": 1802952,
      "componentType": 5126,
      "count": 19182,
      "max": [
        0.7988986372947693,
        0.9999986290931702,
        0.9992281198501587
      ],
      "min": [
        -0.9822977781295776,
        -0.9999262094497681,
        -0.999991238117218
      ],
      "type": "VEC3"
    },
    {
      "bufferView": 1,
      "byteOffset": 524256,
      "componentType": 5126,
      "count": 19182,
      "max": [
        0.9874110221862793,
        0.9994909763336182
      ],
      "min": [
        0.010823000222444534,
        0.0017350000562146306
      ],
      "type": "VEC2"
    },
    {
      "bufferView": 0,
      "byteOffset": 1422300,
      "componentType": 5125,
      "count": 89349,
      "type": "SCALAR"
    },
    {
      "bufferView": 2,
      "byteOffset": 2033136,
      "componentType": 5126,
      "count": 65532,
      "max": [
        0.1764020025730133,
        -0.7778509855270386,
        0.2800010144710541
      ],
      "min": [
        -0.3911280035972595,
        -0.8337380290031433,
        -0.39364099502563477
      ],
      "type": "VEC3"
    },
    {
      "bufferView": 2,
      "byteOffset": 2819520,
      "componentType": 5126,
      "count": 65532,
      "max": [
        0.9930000901222229,
        1.0,
        0.997816264629364
      ],
      "min": [
        -0.988032877445221,
        -0.9996564984321594,
        -0.9987277388572693
      ],
      "type": "VEC3"
    },
    {
      "bufferView": 1,
      "byteOffset": 677712,
      "componentType": 5126,
      "count": 65532,
      "max": [
        0.9966400265693665,
        0.9999690055847168
      ],
      "min": [
        0.0026229999493807554,
        0.002856000093743205
      ],
      "type": "VEC2"
    },
    {
      "bufferView": 0,
      "byteOffset": 1779696,
      "componentType": 5125,
      "count": 360669,
      "type": "SCALAR"
    },
    {
      "bufferView": 2,
      "byteOffset": 3605904,
      "componentType": 5126,
      "count": 18052,
      "max": [
        -0.030956000089645386,
        -0.7881349921226501,
        0.2614609897136688
      ],
      "min": [
        -0.26899200677871704,
        -0.8233609795570374,
        -0.38879498839378357
      ],
      "type": "VEC3"
    },
    {
      "bufferView": 2,
      "byteOffset": 3822528,
      "componentType": 5126,
      "count": 18052,
      "max": [
        0.4951060116291046,
        0.9999997615814209,
        0.9811925292015076
      ],
      "min": [
        -0.9900166392326355,
        -0.21207989752292633,
        -0.9841389060020447
      ],
      "type": "VEC3"
    },
    {
      "bufferView": 1,
      "byteOffset": 1201968,
      "componentType": 5126,
      "count": 18052,
      "max": [
        0.9961900115013123,
        0.9987480044364929
      ],
      "min": [
        0.10593999922275543,
        0.08686099946498871
      ],
      "type": "VEC2"
    },
    {
      "bufferView": 0,
      "byteOffset": 3222372,
      "componentType": 5125,
      "count": 89589,
      "type": "SCALAR"
    },
    {
      "bufferView": 2,
      "byteOffset": 4039152,
      "componentType": 5126,
      "count": 65532,
      "max": [
        0.17940300703048706,
        -0.7795860171318054,
        0.2769869863986969
      ],
      "min": [
        -0.3886120021343231,
        -0.8303679823875427,
        -0.3898620009422302
      ],
      "type": "VEC3"
    },
    {
      "bufferView": 2,
      "byteOffset": 4825536,
      "componentType": 5126,
      "count": 65532,
      "max": [
        0.9951237440109253,
        0.9999997615814209,
        0.9999533295631409
      ],
      "min": [
        -0.999840497970581,
        -0.9994415044784546,
        -0.999997615814209
      ],
      "type": "VEC3"
    },
    {
      "bufferView": 1,
      "byteOffset": 1346384,
      "componentType": 5126,
      "count": 65532,
      "max": [
        0.9961169958114624,
        1.0000519752502441
      ],
      "min": [
        0.0006130000110715628,
        0.00368899991735816
      ],
      "type": "VEC2"
    },
    {
      "bufferView": 0,
      "byteOffset": 3580728,
      "componentType": 5125,
      "count": 352164,
      "type": "SCALAR"
    },
    {
      "bufferView": 2,
      "byteOffset": 5611920,
      "componentType": 5126,
      "count": 19808,
      "max": [
        -0.07755099982023239,
        -0.7840980291366577,
        0.2582229971885681
      ],
      "min": [
        -0.3872770071029663,
        -0.8203179836273193,
        -0.39305201172828674
      ],
      "type": "VEC3"
    },
    {
      "bufferView": 2,
      "byteOffset": 5849616,
      "componentType": 5126,
      "count": 19808,
      "max": [
        0.9630256295204163,
        0.9999992251396179,
        0.9998120069503784
      ],
      "min": [
        -0.9254199862480164,
        -0.9974367618560791,
        -0.9797393679618835
      ],
      "type": "VEC3"
    },
    {
      "bufferView": 1,
      "byteOffset": 1870640,
      "componentType": 5126,
      "count": 19808,
      "max": [
        0.9912639856338501,
        0.9971240162849426
      ],
      "min": [
        0.03234799951314926,
        0.0024649999104440212
      ],
      "type": "VEC2"
    },
    {
      "bufferView": 0,
      "byteOffset": 4989384,
      "componentType": 5125,
      "count": 91110,
      "type": "SCALAR"
    },
    {
      "bufferView": 2,
      "byteOffset": 6087312,
      "componentType": 5126,
      "count": 65532,
      "max": [
        0.18341000378131866,
        -0.7776790261268616,
        0.2807300090789795
      ],
      "min": [
        -0.394228994846344,
        -0.8340749740600586,
        -0.39887699484825134
      ],
      "type": "VEC3"
    },
    {
      "bufferView": 2,
      "byteOffset": 6873696,
      "componentType": 5126,
      "count": 65532,
      "max": [
        0.999981701374054,
        0.9999994039535522,
        0.9999889135360718
      ],
      "min": [
        -0.9998455047607422,
        -0.9999970197677612,
        -0.9999949932098389
      ],
      "type": "VEC3"
    },
    {
      "bufferView": 1,
      "byteOffset": 2029104,
      "componentType": 5126,
      "count": 65532,
      "max": [
        0.9968199729919434,
        1.0003210306167603
      ],
      "min": [
        0.001551999943330884,
        0.0005949999904260039
      ],
      "type": "VEC2"
    },
    {
      "bufferView": 0,
      "byteOffset": 5353824,
      "componentType": 5125,
      "count": 266442,
      "type": "SCALAR"
    },
    {
      "bufferView": 2,
      "byteOffset": 7660080,
      "componentType": 5126,
      "count": 16292,
      "max": [
        0.17563100159168243,
        -0.7925189733505249,
        0.2743220031261444
      ],
      "min": [
        -0.2287749946117401,
        -0.8290200233459473,
        -0.38817399740219116
      ],
      "type": "VEC3"
    },
    {
      "bufferView": 2,
      "byteOffset": 7855584,
      "componentType": 5126,
      "count": 16292,
      "max": [
        0.999678909778595,
        0.9999993443489075,
        0.9999944567680359
      ],
      "min": [
        -0.9983325004577637,
        -0.9998243451118469,
        -0.9994775056838989
      ],
      "type": "VEC3"
    },
    {
      "bufferView": 1,
      "byteOffset": 2553360,
      "componentType": 5126,
      "count": 16292,
      "max": [
        0.9954419732093811,
        0.9998440146446228
      ],
      "min": [
        0.0028379999566823244,
        0.001420999993570149
      ],
      "type": "VEC2"
    },
    {
      "bufferView": 0,
      "byteOffset": 6419592,
      "componentType": 5125,
      "count": 57069,
      "type": "SCALAR"
    }
  ],
  "asset": {
    "extras": {
      "author": "Minneapolis Institute of Art (https://sketchfab.com/artsmia)",
      "license": "CC0-1.0 (http://creativecommons.org/publicdomain/zero/1.0/)",
      "source": "https://sketchfab.com/3d-models/daubignys-the-dunes-at-camiers-fe2b13b786e141a28993792e1650d753",
      "title": "Daubigny's 'The Dunes at Camiers\""
    },
    "generator": "Sketchfab-12.63.0",
    "version": "2.0"
  },
  "bufferViews": [
    {
      "buffer": 0,
      "byteLength": 6647868,
      "name": "floatBufferViews",
      "target": 34963
    },
    {
      "buffer": 0,
      "byteLength": 2683696,
      "byteOffset": 6647868,
      "byteStride": 8,
      "name": "floatBufferViews",
      "target": 34962
    },
    {
      "buffer": 0,
      "byteLength": 8051088,
      "byteOffset": 9331564,
      "byteStride": 12,
      "name": "floatBufferViews",
      "target": 34962
    }
  ],
  "buffers": [
    {
      "byteLength": 17382652,
      "uri": "scene.bin"
    }
  ],
  "images": [
    {
      "uri": "textures/material_0_baseColor.jpeg"
    },
    {
      "uri": "textures/material_1_baseColor.jpeg"
    },
    {
      "uri": "textures/material_2_baseColor.jpeg"
    },
    {
      "uri": "textures/material_3_baseColor.jpeg"
    }
  ],
  "materials": [
    {
      "doubleSided": true,
      "name": "material_0",
      "pbrMetallicRoughness": {
        "baseColorTexture": {
          "index": 0
        },
        "metallicFactor": 0.0,
        "roughnessFactor": 0.6
      }
    },
    {
      "doubleSided": true,
      "name": "material_1",
      "pbrMetallicRoughness": {
        "baseColorTexture": {
          "index": 1
        },
        "metallicFactor": 0.0,
        "roughnessFactor": 0.6
      }
    },
    {
      "doubleSided": true,
      "name": "material_2",
      "pbrMetallicRoughness": {
        "baseColorTexture": {
          "index": 2
        },
        "metallicFactor": 0.0,
        "roughnessFactor": 0.6
      }
    },
    {
      "doubleSided": true,
      "name": "material_3",
      "pbrMetallicRoughness": {
        "baseColorTexture": {
          "index": 3
        },
        "metallicFactor": 0.0,
        "roughnessFactor": 0.6
      }
    }
  ],
  "meshes": [
    {
      "name": "Object_0",
      "primitives": [
        {
          "attributes": {
            "NORMAL": 1,
            "POSITION": 0,
            "TEXCOORD_0": 2
          },
          "indices": 3,
          "material": 0,
          "mode": 4
        }
      ]
    },
    {
      "name": "Object_1",
      "primitives": [
        {
          "attributes": {
            "NORMAL": 5,
            "POSITION": 4,
            "TEXCOORD_0": 6
          },
          "indices": 7,
          "material": 0,
          "mode": 4
        }
      ]
    },
    {
      "name": "Object_2",
      "primitives": [
        {
          "attributes": {
            "NORMAL": 9,
            "POSITION": 8,
            "TEXCOORD_0": 10
          },
          "indices": 11,
          "material": 1,
          "mode": 4
        }
      ]
    },
    {
      "name": "Object_3",
      "primitives": [
        {
          "attributes": {
            "NORMAL": 13,
            "POSITION": 12,
            "TEXCOORD_0": 14
          },
          "indices": 15,
          "material": 1,
          "mode": 4
        }
      ]
    },
    {
      "name": "Object_4",
      "primitives": [
        {
          "attributes": {
            "NORMAL": 17,
            "POSITION": 16,
            "TEXCOORD_0": 18
          },
          "indices": 19,
          "material": 2,
          "mode": 4
        }
      ]
    },
    {
      "name": "Object_5",
      "primitives": [
        {
          "attributes": {
            "NORMAL": 21,
            "POSITION": 20,
            "TEXCOORD_0": 22
          },
          "indices": 23,
          "material": 2,
          "mode": 4
        }
      ]
    },
    {
      "name": "Object_6",
      "primitives": [
        {
          "attributes": {
            "NORMAL": 25,
            "POSITION": 24,
            "TEXCOORD_0": 26
          },
          "indices": 27,
          "material": 3,
          "mode": 4
        }
      ]
    },
    {
      "name": "Object_7",
      "primitives": [
        {
          "attributes": {
            "NORMAL": 29,
            "POSITION": 28,
            "TEXCOORD_0": 30
          },
          "indices": 31,
          "material": 3,
          "mode": 4
        }
      ]
    }
  ],
  "nodes": [
    {
      "children": [
        1
      ],
      "matrix": [
        -0.055516477674245834,
        -0.9970465302467346,
        -0.05306784808635734,
        0.0,
        0.026368996128439903,
        0.051667176187038644,
        -0.9983161687850952,
        0.0,
        0.9981095194816589,
        -0.05682234466075898,
        0.023422734811902032,
        0.0,
        -0.031053321436047554,
        -0.12587948143482208,
        -0.0028532247524708787,
        1.0
      ],
      "name": "Sketchfab_model"
    },
    {
      "children": [
        2,
        3,
        4,
        5,
        6,
        7,
        8,
        9
      ],
      "name": "mia_86_90_Daubigny_500kfaces.obj.cleaner.gles"
    },
    {
      "mesh": 0,
      "name": "Object_2"
    },
    {
      "mesh": 1,
      "name": "Object_3"
    },
    {
      "mesh": 2,
      "name": "Object_4"
    },
    {
      "mesh": 3,
      "name": "Object_5"
    },
    {
      "mesh": 4,
      "name": "Object_6"
    },
    {
      "mesh": 5,
      "name": "Object_7"
    },
    {
      "mesh": 6,
      "name": "Object_8"
    },
    {
      "mesh": 7,
      "name": "Object_9"
    }
  ],
  "samplers": [
    {
      "magFilter": 9729,
      "minFilter": 9987,
      "wrapS": 10497,
      "wrapT": 10497
    }
  ],
  "scene": 0,
  "scenes": [
    {
      "name": "Sketchfab_Scene",
      "nodes": [
        0
      ]
    }
  ],
  "textures": [
    {
      "sampler": 0,
      "source": 0
    },
    {
      "sampler": 0,
      "source": 1
    },
    {
      "sampler": 0,
      "source": 2
    },
    {
      "sampler": 0,
      "source": 3
    }
  ]
}
